<svg width="321" height="40" viewBox="0 0 321 40" fill="none" xmlns="http://www.w3.org/2000/svg">
<path d="M39.209 32.7686L32.6748 39.3027L26.1406 32.7686L32.6748 26.2334L39.209 32.7686ZM56.5244 32.7686L49.9893 39.3027L43.4551 32.7686L49.9893 26.2334L56.5244 32.7686ZM118.373 29.3818L125.728 0.286133H132.704L140.168 29.3281L147.09 0.0693359H154.066L143.412 38.6836H136.868L129.026 8.29004L121.293 38.6836H114.966L103.879 0.0693359H111.234L118.373 29.3818ZM197.348 38.6836H190.371L186.748 28.8408H171.768L168.197 38.6836H161.438L176.147 0.0693359H182.638L197.348 38.6836ZM235.343 5.69434H217.225V16.6182H234.261V22.2969H217.225V38.6836H210.682V0.0693359H235.343V5.69434ZM276.077 5.69434H256.933V15.9697H274.996V21.6484H256.933V33.0596H277.105L276.348 38.6836H250.389V0.0693359H276.077V5.69434ZM304.612 0.0693359C307.568 0.0693359 309.985 0.412744 311.859 1.09766C313.77 1.74657 315.267 2.61187 316.349 3.69336C317.466 4.77486 318.224 6.00124 318.62 7.37109C319.053 8.7049 319.269 10.0392 319.269 11.373C319.269 13.8246 318.782 15.916 317.809 17.6465C316.835 19.3769 315.23 20.765 312.995 21.8105L320.999 38.6836H313.86L306.938 23.3242C306.578 23.3603 306.217 23.3966 305.856 23.4326H297.853V38.6836H291.417V0.0693359H304.612ZM30.4951 24.0557L23.9609 30.5908L17.4268 24.0557L23.9609 17.5215L30.4951 24.0557ZM47.9219 24.0557L41.3877 30.5908L41.332 30.5352L41.2773 30.5908L34.7422 24.0557L41.2773 17.5215L41.332 17.5762L41.3877 17.5215L47.9219 24.0557ZM65.2363 24.0557L58.7021 30.5908L52.167 24.0557L58.7021 17.5215L65.2363 24.0557ZM173.552 23.3789H184.963L179.23 7.47852L173.552 23.3789ZM21.7832 15.3428L15.248 21.8779L8.71387 15.3428L15.248 8.80859L21.7832 15.3428ZM39.209 15.3438L32.6748 21.8779L26.1406 15.3438L32.6748 8.80859L39.209 15.3438ZM56.5244 15.3438L49.9893 21.8779L43.4551 15.3438L49.9893 8.80859L56.5244 15.3438ZM73.9502 15.3438L67.415 21.8779L60.8809 15.3438L67.415 8.80957L73.9502 15.3438ZM297.853 17.917H305.1C306.578 17.917 307.804 17.7727 308.777 17.4844C309.751 17.1599 310.508 16.7262 311.049 16.1855C311.625 15.6088 312.022 14.9239 312.238 14.1309C312.491 13.3377 312.617 12.4539 312.617 11.4805C312.617 10.6155 312.491 9.82242 312.238 9.10156C311.986 8.34458 311.553 7.69503 310.94 7.1543C310.328 6.61362 309.498 6.19854 308.452 5.91016C307.407 5.62187 306.072 5.47754 304.45 5.47754H297.853V17.917ZM13.0693 6.63086L6.53418 13.165L0 6.63086L6.53418 0.0957031L13.0693 6.63086ZM30.4941 6.63086L23.959 13.165L17.4248 6.63086L23.959 0.0957031L30.4941 6.63086ZM65.2383 6.63086L58.7031 13.165L52.1689 6.63086L58.7031 0.0957031L65.2383 6.63086ZM82.6631 6.63086L76.1279 13.165L69.5938 6.63086L76.1279 0.0957031L82.6631 6.63086ZM47.8115 6.53516L41.2773 13.0693L34.7422 6.53516L41.2773 0L47.8115 6.53516Z" fill="white"/>
</svg>
