<svg width="316" height="150" viewBox="0 0 316 150" fill="none" xmlns="http://www.w3.org/2000/svg">
<path d="M149.582 124.645L124.653 149.573L99.7246 124.645L124.653 99.7158L149.582 124.645ZM215.632 124.645L190.703 149.573L165.773 124.645L190.703 99.7158L215.632 124.645ZM116.34 91.4062L91.4102 116.335L66.4814 91.4062L91.4102 66.4766L116.34 91.4062ZM182.815 91.4062L157.887 116.335L157.677 116.125L157.468 116.335L132.539 91.4062L157.468 66.4766L157.677 66.6855L157.887 66.4766L182.815 91.4062ZM248.873 91.4062L223.944 116.335L199.016 91.4062L223.944 66.4766L248.873 91.4062ZM83.0996 58.168L58.1709 83.0967L33.2412 58.168L58.1709 33.2393L83.0996 58.168ZM149.583 58.168L124.654 83.0967L99.7256 58.168L124.654 33.2383L149.583 58.168ZM215.633 58.168L190.703 83.0967L165.774 58.168L190.703 33.2383L215.633 58.168ZM282.118 58.168L257.189 83.0967L232.261 58.168L257.189 33.2393L282.118 58.168ZM49.8574 24.9287L24.9287 49.8574L0 24.9287L24.9287 0L49.8574 24.9287ZM116.334 24.9287L91.4053 49.8574L66.4766 24.9287L91.4053 0L116.334 24.9287ZM182.397 24.9287L157.469 49.8574L132.54 24.9287L157.469 0L182.397 24.9287ZM248.881 24.9287L223.952 49.8574L199.023 24.9287L223.952 0L248.881 24.9287ZM315.357 24.9287L290.429 49.8574L265.5 24.9287L290.429 0L315.357 24.9287Z" fill="white"/>
</svg>
